<?xml version="1.0" encoding="UTF-8" standalone="no"?>
<!DOCTYPE svg PUBLIC "-//W3C//DTD SVG 1.1//EN" "http://www.w3.org/Graphics/SVG/1.1/DTD/svg11.dtd">
<svg width="100%" height="100%" viewBox="0 0 22 22" version="1.1" xmlns="http://www.w3.org/2000/svg" xmlns:xlink="http://www.w3.org/1999/xlink" xml:space="preserve" xmlns:serif="http://www.serif.com/" style="fill-rule:evenodd;clip-rule:evenodd;stroke-linejoin:round;stroke-miterlimit:2;">
    <g transform="matrix(1,0,0,1,-1,-1)">
        <path d="M12.447,1.106C12.166,0.965 11.834,0.965 11.553,1.106L1.553,6.106C1.214,6.275 1,6.621 1,7C1,7.379 1.214,7.725 1.553,7.894L11.553,12.894C11.834,13.035 12.166,13.035 12.447,12.894L22.447,7.894C22.786,7.725 23,7.379 23,7C23,6.621 22.786,6.275 22.447,6.106L12.447,1.106ZM12,3.118L19.764,7C19.764,7 12,10.882 12,10.882C12,10.882 4.236,7 4.236,7L12,3.118Z"/>
        <path d="M1.553,17.894L11.553,22.894C11.834,23.035 12.166,23.035 12.447,22.894L22.447,17.894C22.941,17.648 23.141,17.046 22.894,16.553C22.648,16.059 22.046,15.859 21.553,16.106L12,20.882C12,20.882 2.447,16.106 2.447,16.106C1.954,15.859 1.352,16.059 1.106,16.553C0.859,17.046 1.059,17.648 1.553,17.894Z"/>
        <path d="M1.553,12.894L11.553,17.894C11.834,18.035 12.166,18.035 12.447,17.894L22.447,12.894C22.941,12.648 23.141,12.046 22.894,11.553C22.648,11.059 22.046,10.859 21.553,11.106L12,15.882C12,15.882 2.447,11.106 2.447,11.106C1.954,10.859 1.352,11.059 1.106,11.553C0.859,12.046 1.059,12.648 1.553,12.894Z"/>
    </g>
</svg>
