<?xml version="1.0" encoding="UTF-8" standalone="no"?>
<!DOCTYPE svg PUBLIC "-//W3C//DTD SVG 1.1//EN" "http://www.w3.org/Graphics/SVG/1.1/DTD/svg11.dtd">
<svg width="100%" height="100%" viewBox="0 0 22 21" version="1.1" xmlns="http://www.w3.org/2000/svg" xmlns:xlink="http://www.w3.org/1999/xlink" xml:space="preserve" xmlns:serif="http://www.serif.com/" style="fill-rule:evenodd;clip-rule:evenodd;stroke-linejoin:round;stroke-miterlimit:2;">
    <g transform="matrix(1,0,0,1,-1.00003,-1.02)">
        <path d="M12.897,1.557C12.728,1.216 12.381,1 12,1C11.619,1 11.272,1.216 11.103,1.557L8.246,7.346C8.246,7.346 1.855,8.281 1.855,8.281C1.479,8.336 1.166,8.6 1.049,8.962C0.931,9.324 1.03,9.721 1.302,9.986L5.925,14.489C5.925,14.489 4.834,20.851 4.834,20.851C4.77,21.226 4.924,21.605 5.232,21.829C5.54,22.053 5.949,22.082 6.285,21.905L12,18.9C12,18.9 17.715,21.905 17.715,21.905C18.051,22.082 18.46,22.053 18.768,21.829C19.076,21.605 19.23,21.226 19.166,20.851L18.075,14.489C18.075,14.489 22.698,9.986 22.698,9.986C22.97,9.721 23.069,9.324 22.951,8.962C22.834,8.6 22.521,8.336 22.145,8.281L15.754,7.346C15.754,7.346 12.897,1.557 12.897,1.557ZM12,4.259L14.193,8.703C14.339,8.997 14.62,9.202 14.945,9.249L19.852,9.967C19.852,9.967 16.302,13.424 16.302,13.424C16.066,13.653 15.959,13.985 16.014,14.309L16.852,19.192C16.852,19.192 12.465,16.885 12.465,16.885C12.174,16.732 11.826,16.732 11.535,16.885L7.148,19.192C7.148,19.192 7.986,14.309 7.986,14.309C8.041,13.985 7.934,13.653 7.698,13.424L4.148,9.967C4.148,9.967 9.055,9.249 9.055,9.249C9.38,9.202 9.661,8.997 9.807,8.703L12,4.259Z"/>
    </g>
</svg>
