<?xml version="1.0" encoding="UTF-8" standalone="no"?>
<!DOCTYPE svg PUBLIC "-//W3C//DTD SVG 1.1//EN" "http://www.w3.org/Graphics/SVG/1.1/DTD/svg11.dtd">
<svg width="100%" height="100%" viewBox="0 0 20 20" version="1.1" xmlns="http://www.w3.org/2000/svg" xmlns:xlink="http://www.w3.org/1999/xlink" xml:space="preserve" xmlns:serif="http://www.serif.com/" style="fill-rule:evenodd;clip-rule:evenodd;stroke-linejoin:round;stroke-miterlimit:2;">
    <g transform="matrix(0.909091,0,0,0.909091,-0.909091,-0.909091)">
        <g>
            <path d="M23,4.18C23,2.425 21.575,1 19.82,1L4.18,1C2.425,1 1,2.425 1,4.18L1,19.82C1,21.575 2.425,23 4.18,23L19.82,23C21.575,23 23,21.575 23,19.82L23,4.18ZM21,4.18L21,19.82C21,20.471 20.471,21 19.82,21C19.82,21 4.18,21 4.18,21C3.529,21 3,20.471 3,19.82L3,4.18C3,3.529 3.529,3 4.18,3L19.82,3C20.471,3 21,3.529 21,4.18Z" style="fill:rgb(102,102,102);"/>
            <path d="M6,2L6,22C6,22.552 6.448,23 7,23C7.552,23 8,22.552 8,22L8,2C8,1.448 7.552,1 7,1C6.448,1 6,1.448 6,2Z" style="fill:rgb(102,102,102);"/>
            <path d="M16,2L16,22C16,22.552 16.448,23 17,23C17.552,23 18,22.552 18,22L18,2C18,1.448 17.552,1 17,1C16.448,1 16,1.448 16,2Z" style="fill:rgb(102,102,102);"/>
            <path d="M2,13L22,13C22.552,13 23,12.552 23,12C23,11.448 22.552,11 22,11L2,11C1.448,11 1,11.448 1,12C1,12.552 1.448,13 2,13Z" style="fill:rgb(102,102,102);"/>
            <path d="M2,8L7,8C7.552,8 8,7.552 8,7C8,6.448 7.552,6 7,6L2,6C1.448,6 1,6.448 1,7C1,7.552 1.448,8 2,8Z" style="fill:rgb(102,102,102);"/>
            <path d="M2,18L7,18C7.552,18 8,17.552 8,17C8,16.448 7.552,16 7,16L2,16C1.448,16 1,16.448 1,17C1,17.552 1.448,18 2,18Z" style="fill:rgb(102,102,102);"/>
            <path d="M17,18L22,18C22.552,18 23,17.552 23,17C23,16.448 22.552,16 22,16L17,16C16.448,16 16,16.448 16,17C16,17.552 16.448,18 17,18Z" style="fill:rgb(102,102,102);"/>
            <path d="M17,8L22,8C22.552,8 23,7.552 23,7C23,6.448 22.552,6 22,6L17,6C16.448,6 16,6.448 16,7C16,7.552 16.448,8 17,8Z" style="fill:rgb(102,102,102);"/>
        </g>
    </g>
</svg>
