<?xml version="1.0" encoding="UTF-8" standalone="no"?>
<!DOCTYPE svg PUBLIC "-//W3C//DTD SVG 1.1//EN" "http://www.w3.org/Graphics/SVG/1.1/DTD/svg11.dtd">
<svg width="100%" height="100%" viewBox="0 0 24 24" version="1.1" xmlns="http://www.w3.org/2000/svg" xmlns:xlink="http://www.w3.org/1999/xlink" xml:space="preserve" xmlns:serif="http://www.serif.com/" style="fill-rule:evenodd;clip-rule:evenodd;stroke-linejoin:round;stroke-miterlimit:2;">
    <path d="M21.763,1.029L21.755,1.03L21.736,1.036L21.715,1.041L21.702,1.045C21.688,1.05 21.675,1.054 21.661,1.059L1.67,8.056C1.283,8.192 1.018,8.55 1.001,8.959C0.984,9.369 1.219,9.747 1.594,9.914L10.242,13.758C10.242,13.758 14.086,22.406 14.086,22.406C14.253,22.781 14.631,23.016 15.041,22.999C15.45,22.982 15.808,22.717 15.944,22.33L22.941,2.339C22.946,2.325 22.95,2.312 22.955,2.298L22.96,2.279L22.966,2.259L22.971,2.237C23.012,2.072 23.009,1.902 22.966,1.741L22.961,1.723C22.924,1.594 22.86,1.471 22.77,1.362L22.757,1.346L22.743,1.33L22.725,1.311L22.707,1.293L22.689,1.275L22.668,1.256L22.651,1.241L22.638,1.23C22.529,1.14 22.406,1.076 22.277,1.039L22.259,1.034C22.098,0.991 21.928,0.988 21.763,1.029ZM19.609,5.806L12.193,13.221L14.889,19.289L19.609,5.806ZM4.711,9.111L10.779,11.807L18.194,4.391L4.711,9.111Z" style="fill:rgb(102,102,102);"/>
</svg>
