<?xml version="1.0" encoding="UTF-8" standalone="no"?>
<!DOCTYPE svg PUBLIC "-//W3C//DTD SVG 1.1//EN" "http://www.w3.org/Graphics/SVG/1.1/DTD/svg11.dtd">
<svg width="100%" height="100%" viewBox="0 0 1283 128" version="1.1" xmlns="http://www.w3.org/2000/svg" xmlns:xlink="http://www.w3.org/1999/xlink" xml:space="preserve" xmlns:serif="http://www.serif.com/" style="fill-rule:evenodd;clip-rule:evenodd;stroke-linejoin:round;stroke-miterlimit:2;">
    <g transform="matrix(1,0,0,1,0,-22.6329)">
        <g transform="matrix(5.44898e-18,-0.0889886,0.382802,2.34398e-17,-139.046,157.358)">
            <rect x="205.092" y="363.232" width="1186.45" height="37.345" style="fill:rgb(102,102,102);"/>
        </g>
        <g transform="matrix(-1.08138,-1.32431e-16,4.68797e-17,-0.382802,1504.78,175.974)">
            <rect x="205.092" y="363.232" width="1186.45" height="37.345" style="fill:rgb(102,102,102);"/>
        </g>
        <g transform="matrix(-1.08138,-1.32431e-16,4.68797e-17,-0.382802,1504.78,289.046)">
            <rect x="205.092" y="363.232" width="1186.45" height="37.345" style="fill:rgb(102,102,102);"/>
        </g>
        <g transform="matrix(5.44898e-18,-0.0889886,0.382802,2.34398e-17,1129.66,158.563)">
            <rect x="205.092" y="363.232" width="1186.45" height="37.345" style="fill:rgb(102,102,102);"/>
        </g>
    </g>
    <g transform="matrix(1.56661,0,0,1.56661,-366.231,27.5888)">
        <path d="M253.559,45.44C253.133,45.44 252.77,45.291 252.471,44.992C252.173,44.693 252.023,44.331 252.023,43.904L252.023,2.24C252.023,1.771 252.173,1.387 252.471,1.088C252.77,0.789 253.133,0.64 253.559,0.64L270.711,0.64C274.039,0.64 276.941,1.163 279.415,2.208C281.89,3.253 283.81,4.832 285.175,6.944C286.541,9.056 287.223,11.691 287.223,14.848C287.223,18.048 286.541,20.683 285.175,22.752C283.81,24.821 281.89,26.368 279.415,27.392C276.941,28.416 274.039,28.928 270.711,28.928L261.175,28.928L261.175,43.904C261.175,44.331 261.037,44.693 260.759,44.992C260.482,45.291 260.109,45.44 259.639,45.44L253.559,45.44ZM261.047,21.824L270.391,21.824C272.866,21.824 274.765,21.237 276.087,20.064C277.41,18.891 278.071,17.152 278.071,14.848C278.071,12.715 277.453,10.997 276.215,9.696C274.978,8.395 273.037,7.744 270.391,7.744L261.047,7.744L261.047,21.824Z" style="fill-rule:nonzero;"/>
        <path d="M288.631,45.44C288.29,45.44 287.981,45.312 287.703,45.056C287.426,44.8 287.287,44.48 287.287,44.096C287.287,43.925 287.33,43.733 287.415,43.52L302.839,2.24C302.967,1.813 303.213,1.44 303.575,1.12C303.938,0.8 304.439,0.64 305.079,0.64L312.055,0.64C312.695,0.64 313.186,0.8 313.527,1.12C313.869,1.44 314.125,1.813 314.295,2.24L329.719,43.52C329.762,43.733 329.783,43.925 329.783,44.096C329.783,44.48 329.655,44.8 329.399,45.056C329.143,45.312 328.845,45.44 328.503,45.44L322.935,45.44C322.338,45.44 321.901,45.301 321.623,45.024C321.346,44.747 321.165,44.48 321.079,44.224L318.071,36.416L299.063,36.416L296.055,44.224C295.97,44.48 295.789,44.747 295.511,45.024C295.234,45.301 294.797,45.44 294.199,45.44L288.631,45.44ZM301.303,29.056L315.831,29.056L308.535,9.28L301.303,29.056Z" style="fill-rule:nonzero;"/>
        <path d="M352.631,46.08C348.919,46.08 345.698,45.451 342.967,44.192C340.237,42.933 338.125,40.992 336.631,38.368C335.138,35.744 334.391,32.384 334.391,28.288L334.391,2.24C334.391,1.771 334.541,1.387 334.839,1.088C335.138,0.789 335.501,0.64 335.927,0.64L341.751,0.64C342.221,0.64 342.594,0.789 342.871,1.088C343.149,1.387 343.287,1.771 343.287,2.24L343.287,28.288C343.287,31.787 344.119,34.379 345.783,36.064C347.447,37.749 349.73,38.592 352.631,38.592C355.533,38.592 357.805,37.749 359.447,36.064C361.09,34.379 361.911,31.787 361.911,28.288L361.911,2.24C361.911,1.771 362.061,1.387 362.359,1.088C362.658,0.789 363.042,0.64 363.511,0.64L369.271,0.64C369.741,0.64 370.114,0.789 370.391,1.088C370.669,1.387 370.807,1.771 370.807,2.24L370.807,28.288C370.807,32.384 370.071,35.744 368.599,38.368C367.127,40.992 365.037,42.933 362.327,44.192C359.618,45.451 356.386,46.08 352.631,46.08Z" style="fill-rule:nonzero;"/>
        <path d="M381.943,45.44C381.517,45.44 381.154,45.291 380.855,44.992C380.557,44.693 380.407,44.331 380.407,43.904L380.407,2.176C380.407,1.749 380.557,1.387 380.855,1.088C381.154,0.789 381.517,0.64 381.943,0.64L387.895,0.64C388.322,0.64 388.685,0.789 388.983,1.088C389.282,1.387 389.431,1.749 389.431,2.176L389.431,37.824L409.719,37.824C410.189,37.824 410.573,37.973 410.871,38.272C411.17,38.571 411.319,38.955 411.319,39.424L411.319,43.904C411.319,44.331 411.17,44.693 410.871,44.992C410.573,45.291 410.189,45.44 409.719,45.44L381.943,45.44Z" style="fill-rule:nonzero;"/>
        <path d="M432.119,45.44C431.693,45.44 431.33,45.291 431.031,44.992C430.733,44.693 430.583,44.331 430.583,43.904L430.583,2.24C430.583,1.771 430.733,1.387 431.031,1.088C431.33,0.789 431.693,0.64 432.119,0.64L448.695,0.64C453.858,0.64 457.933,1.835 460.919,4.224C463.906,6.613 465.399,10.091 465.399,14.656C465.399,17.813 464.621,20.437 463.063,22.528C461.506,24.619 459.426,26.133 456.823,27.072L466.167,43.392C466.295,43.648 466.359,43.883 466.359,44.096C466.359,44.48 466.221,44.8 465.943,45.056C465.666,45.312 465.357,45.44 465.015,45.44L459.191,45.44C458.466,45.44 457.911,45.248 457.527,44.864C457.143,44.48 456.845,44.096 456.631,43.712L448.375,28.544L439.479,28.544L439.479,43.904C439.479,44.331 439.341,44.693 439.063,44.992C438.786,45.291 438.413,45.44 437.943,45.44L432.119,45.44ZM439.479,21.312L448.503,21.312C451.106,21.312 453.047,20.725 454.327,19.552C455.607,18.379 456.247,16.725 456.247,14.592C456.247,12.459 455.618,10.784 454.359,9.568C453.101,8.352 451.149,7.744 448.503,7.744L439.479,7.744L439.479,21.312Z" style="fill-rule:nonzero;"/>
        <path d="M470.903,45.44C470.562,45.44 470.253,45.312 469.975,45.056C469.698,44.8 469.559,44.48 469.559,44.096C469.559,43.925 469.602,43.733 469.687,43.52L485.111,2.24C485.239,1.813 485.485,1.44 485.847,1.12C486.21,0.8 486.711,0.64 487.351,0.64L494.327,0.64C494.967,0.64 495.458,0.8 495.799,1.12C496.141,1.44 496.397,1.813 496.567,2.24L511.991,43.52C512.034,43.733 512.055,43.925 512.055,44.096C512.055,44.48 511.927,44.8 511.671,45.056C511.415,45.312 511.117,45.44 510.775,45.44L505.207,45.44C504.61,45.44 504.173,45.301 503.895,45.024C503.618,44.747 503.437,44.48 503.351,44.224L500.343,36.416L481.335,36.416L478.327,44.224C478.242,44.48 478.061,44.747 477.783,45.024C477.506,45.301 477.069,45.44 476.471,45.44L470.903,45.44ZM483.575,29.056L498.103,29.056L490.807,9.28L483.575,29.056Z" style="fill-rule:nonzero;"/>
        <path d="M526.455,45.44C526.029,45.44 525.666,45.291 525.367,44.992C525.069,44.693 524.919,44.331 524.919,43.904L524.919,29.44L509.815,2.688C509.773,2.603 509.73,2.496 509.687,2.368C509.645,2.24 509.623,2.112 509.623,1.984C509.623,1.6 509.751,1.28 510.007,1.024C510.263,0.768 510.562,0.64 510.903,0.64L516.599,0.64C517.111,0.64 517.527,0.768 517.847,1.024C518.167,1.28 518.391,1.557 518.519,1.856L529.399,20.48L540.215,1.856C540.386,1.557 540.631,1.28 540.951,1.024C541.271,0.768 541.687,0.64 542.199,0.64L547.831,0.64C548.215,0.64 548.535,0.768 548.791,1.024C549.047,1.28 549.175,1.6 549.175,1.984C549.175,2.112 549.165,2.24 549.143,2.368C549.122,2.496 549.069,2.603 548.983,2.688L533.879,29.44L533.879,43.904C533.879,44.331 533.73,44.693 533.431,44.992C533.133,45.291 532.749,45.44 532.279,45.44L526.455,45.44Z" style="fill-rule:nonzero;"/>
        <path d="M557.175,45.44C556.749,45.44 556.386,45.291 556.087,44.992C555.789,44.693 555.639,44.331 555.639,43.904L555.639,2.24C555.639,1.771 555.789,1.387 556.087,1.088C556.386,0.789 556.749,0.64 557.175,0.64L572.791,0.64C577.101,0.64 580.653,1.301 583.447,2.624C586.242,3.947 588.354,5.909 589.783,8.512C591.213,11.115 591.949,14.293 591.991,18.048C592.077,19.925 592.119,21.589 592.119,23.04C592.119,24.491 592.077,26.133 591.991,27.968C591.906,31.936 591.181,35.211 589.815,37.792C588.45,40.373 586.391,42.293 583.639,43.552C580.887,44.811 577.378,45.44 573.111,45.44L557.175,45.44ZM564.535,38.08L572.791,38.08C575.181,38.08 577.122,37.739 578.615,37.056C580.109,36.373 581.207,35.275 581.911,33.76C582.615,32.245 582.989,30.251 583.031,27.776C583.074,26.496 583.106,25.376 583.127,24.416C583.149,23.456 583.149,22.496 583.127,21.536C583.106,20.576 583.074,19.477 583.031,18.24C582.946,14.741 582.071,12.16 580.407,10.496C578.743,8.832 576.098,8 572.471,8L564.535,8L564.535,38.08Z" style="fill-rule:nonzero;"/>
        <path d="M617.847,46.08C614.05,46.08 610.786,45.451 608.055,44.192C605.325,42.933 603.191,40.992 601.655,38.368C600.119,35.744 599.287,32.469 599.159,28.544C599.117,26.709 599.095,24.896 599.095,23.104C599.095,21.312 599.117,19.477 599.159,17.6C599.287,13.717 600.141,10.475 601.719,7.872C603.298,5.269 605.463,3.307 608.215,1.984C610.967,0.661 614.178,0 617.847,0C621.517,0 624.738,0.661 627.511,1.984C630.285,3.307 632.461,5.269 634.039,7.872C635.618,10.475 636.471,13.717 636.599,17.6C636.685,19.477 636.727,21.312 636.727,23.104C636.727,24.896 636.685,26.709 636.599,28.544C636.471,32.469 635.639,35.744 634.103,38.368C632.567,40.992 630.423,42.933 627.671,44.192C624.919,45.451 621.645,46.08 617.847,46.08ZM617.847,38.72C620.621,38.72 622.882,37.899 624.631,36.256C626.381,34.613 627.319,31.936 627.447,28.224C627.533,26.347 627.575,24.608 627.575,23.008C627.575,21.408 627.533,19.691 627.447,17.856C627.362,15.381 626.903,13.365 626.071,11.808C625.239,10.251 624.119,9.12 622.711,8.416C621.303,7.712 619.682,7.36 617.847,7.36C616.055,7.36 614.455,7.712 613.047,8.416C611.639,9.12 610.519,10.251 609.687,11.808C608.855,13.365 608.397,15.381 608.311,17.856C608.269,19.691 608.247,21.408 608.247,23.008C608.247,24.608 608.269,26.347 608.311,28.224C608.439,31.936 609.378,34.613 611.127,36.256C612.877,37.899 615.117,38.72 617.847,38.72Z" style="fill-rule:nonzero;"/>
        <path d="M646.647,45.44C646.221,45.44 645.858,45.291 645.559,44.992C645.261,44.693 645.111,44.331 645.111,43.904L645.111,2.24C645.111,1.771 645.261,1.387 645.559,1.088C645.858,0.789 646.221,0.64 646.647,0.64L651.575,0.64C652.173,0.64 652.61,0.779 652.887,1.056C653.165,1.333 653.346,1.536 653.431,1.664L671.863,30.336L671.863,2.24C671.863,1.771 672.002,1.387 672.279,1.088C672.557,0.789 672.93,0.64 673.399,0.64L678.775,0.64C679.245,0.64 679.629,0.789 679.927,1.088C680.226,1.387 680.375,1.771 680.375,2.24L680.375,43.84C680.375,44.309 680.226,44.693 679.927,44.992C679.629,45.291 679.266,45.44 678.839,45.44L673.847,45.44C673.25,45.44 672.823,45.291 672.567,44.992C672.311,44.693 672.119,44.501 671.991,44.416L653.623,16.384L653.623,43.904C653.623,44.331 653.474,44.693 653.175,44.992C652.877,45.291 652.493,45.44 652.023,45.44L646.647,45.44Z" style="fill-rule:nonzero;"/>
        <path d="M706.615,45.44C706.146,45.44 705.762,45.291 705.463,44.992C705.165,44.693 705.015,44.331 705.015,43.904L705.015,2.24C705.015,1.771 705.165,1.387 705.463,1.088C705.762,0.789 706.146,0.64 706.615,0.64L711.671,0.64C712.269,0.64 712.717,0.8 713.015,1.12C713.314,1.44 713.506,1.685 713.591,1.856L725.943,24.896L738.423,1.856C738.509,1.685 738.701,1.44 738.999,1.12C739.298,0.8 739.746,0.64 740.343,0.64L745.335,0.64C745.805,0.64 746.189,0.789 746.487,1.088C746.786,1.387 746.935,1.771 746.935,2.24L746.935,43.904C746.935,44.331 746.786,44.693 746.487,44.992C746.189,45.291 745.805,45.44 745.335,45.44L739.959,45.44C739.49,45.44 739.117,45.291 738.839,44.992C738.562,44.693 738.423,44.331 738.423,43.904L738.423,16.192L729.463,33.28C729.25,33.664 728.973,33.995 728.631,34.272C728.29,34.549 727.842,34.688 727.287,34.688L724.663,34.688C724.066,34.688 723.607,34.549 723.287,34.272C722.967,33.995 722.701,33.664 722.487,33.28L713.527,16.192L713.527,43.904C713.527,44.331 713.378,44.693 713.079,44.992C712.781,45.291 712.418,45.44 711.991,45.44L706.615,45.44Z" style="fill-rule:nonzero;"/>
        <path d="M774.135,46.08C770.338,46.08 767.074,45.451 764.343,44.192C761.613,42.933 759.479,40.992 757.943,38.368C756.407,35.744 755.575,32.469 755.447,28.544C755.405,26.709 755.383,24.896 755.383,23.104C755.383,21.312 755.405,19.477 755.447,17.6C755.575,13.717 756.429,10.475 758.007,7.872C759.586,5.269 761.751,3.307 764.503,1.984C767.255,0.661 770.466,0 774.135,0C777.805,0 781.026,0.661 783.799,1.984C786.573,3.307 788.749,5.269 790.327,7.872C791.906,10.475 792.759,13.717 792.887,17.6C792.973,19.477 793.015,21.312 793.015,23.104C793.015,24.896 792.973,26.709 792.887,28.544C792.759,32.469 791.927,35.744 790.391,38.368C788.855,40.992 786.711,42.933 783.959,44.192C781.207,45.451 777.933,46.08 774.135,46.08ZM774.135,38.72C776.909,38.72 779.17,37.899 780.919,36.256C782.669,34.613 783.607,31.936 783.735,28.224C783.821,26.347 783.863,24.608 783.863,23.008C783.863,21.408 783.821,19.691 783.735,17.856C783.65,15.381 783.191,13.365 782.359,11.808C781.527,10.251 780.407,9.12 778.999,8.416C777.591,7.712 775.97,7.36 774.135,7.36C772.343,7.36 770.743,7.712 769.335,8.416C767.927,9.12 766.807,10.251 765.975,11.808C765.143,13.365 764.685,15.381 764.599,17.856C764.557,19.691 764.535,21.408 764.535,23.008C764.535,24.608 764.557,26.347 764.599,28.224C764.727,31.936 765.666,34.613 767.415,36.256C769.165,37.899 771.405,38.72 774.135,38.72Z" style="fill-rule:nonzero;"/>
        <path d="M802.935,45.44C802.509,45.44 802.146,45.291 801.847,44.992C801.549,44.693 801.399,44.331 801.399,43.904L801.399,2.176C801.399,1.749 801.549,1.387 801.847,1.088C802.146,0.789 802.509,0.64 802.935,0.64L808.951,0.64C809.421,0.64 809.794,0.789 810.071,1.088C810.349,1.387 810.487,1.749 810.487,2.176L810.487,43.904C810.487,44.331 810.349,44.693 810.071,44.992C809.794,45.291 809.421,45.44 808.951,45.44L802.935,45.44Z" style="fill-rule:nonzero;"/>
        <path d="M837.943,46.08C834.018,46.08 830.679,45.397 827.927,44.032C825.175,42.667 823.042,40.693 821.527,38.112C820.013,35.531 819.191,32.448 819.063,28.864C819.021,27.029 818.999,25.056 818.999,22.944C818.999,20.832 819.021,18.837 819.063,16.96C819.191,13.419 820.013,10.389 821.527,7.872C823.042,5.355 825.197,3.413 827.991,2.048C830.786,0.683 834.103,0 837.943,0C841.058,0 843.789,0.416 846.135,1.248C848.482,2.08 850.434,3.147 851.991,4.448C853.549,5.749 854.722,7.147 855.511,8.64C856.301,10.133 856.717,11.52 856.759,12.8C856.802,13.184 856.695,13.504 856.439,13.76C856.183,14.016 855.842,14.144 855.415,14.144L848.823,14.144C848.397,14.144 848.077,14.059 847.863,13.888C847.65,13.717 847.458,13.461 847.287,13.12C846.946,12.224 846.413,11.339 845.687,10.464C844.962,9.589 843.981,8.853 842.743,8.256C841.506,7.659 839.906,7.36 837.943,7.36C835.042,7.36 832.727,8.128 830.999,9.664C829.271,11.2 828.343,13.739 828.215,17.28C828.087,20.992 828.087,24.747 828.215,28.544C828.343,32.171 829.293,34.773 831.063,36.352C832.834,37.931 835.17,38.72 838.071,38.72C839.991,38.72 841.709,38.379 843.223,37.696C844.738,37.013 845.933,35.947 846.807,34.496C847.682,33.045 848.119,31.189 848.119,28.928L848.119,26.944L840.311,26.944C839.885,26.944 839.522,26.795 839.223,26.496C838.925,26.197 838.775,25.813 838.775,25.344L838.775,21.952C838.775,21.483 838.925,21.099 839.223,20.8C839.522,20.501 839.885,20.352 840.311,20.352L855.607,20.352C856.077,20.352 856.45,20.501 856.727,20.8C857.005,21.099 857.143,21.483 857.143,21.952L857.143,28.672C857.143,32.256 856.365,35.349 854.807,37.952C853.25,40.555 851.031,42.56 848.151,43.968C845.271,45.376 841.869,46.08 837.943,46.08Z" style="fill-rule:nonzero;"/>
        <path d="M866.871,45.44C866.445,45.44 866.082,45.291 865.783,44.992C865.485,44.693 865.335,44.331 865.335,43.904L865.335,2.24C865.335,1.771 865.485,1.387 865.783,1.088C866.082,0.789 866.445,0.64 866.871,0.64L871.799,0.64C872.397,0.64 872.834,0.779 873.111,1.056C873.389,1.333 873.57,1.536 873.655,1.664L892.087,30.336L892.087,2.24C892.087,1.771 892.226,1.387 892.503,1.088C892.781,0.789 893.154,0.64 893.623,0.64L898.999,0.64C899.469,0.64 899.853,0.789 900.151,1.088C900.45,1.387 900.599,1.771 900.599,2.24L900.599,43.84C900.599,44.309 900.45,44.693 900.151,44.992C899.853,45.291 899.49,45.44 899.063,45.44L894.071,45.44C893.474,45.44 893.047,45.291 892.791,44.992C892.535,44.693 892.343,44.501 892.215,44.416L873.847,16.384L873.847,43.904C873.847,44.331 873.698,44.693 873.399,44.992C873.101,45.291 872.717,45.44 872.247,45.44L866.871,45.44Z" style="fill-rule:nonzero;"/>
        <path d="M907.831,45.44C907.49,45.44 907.181,45.312 906.903,45.056C906.626,44.8 906.487,44.48 906.487,44.096C906.487,43.925 906.53,43.733 906.615,43.52L922.039,2.24C922.167,1.813 922.413,1.44 922.775,1.12C923.138,0.8 923.639,0.64 924.279,0.64L931.255,0.64C931.895,0.64 932.386,0.8 932.727,1.12C933.069,1.44 933.325,1.813 933.495,2.24L948.919,43.52C948.962,43.733 948.983,43.925 948.983,44.096C948.983,44.48 948.855,44.8 948.599,45.056C948.343,45.312 948.045,45.44 947.703,45.44L942.135,45.44C941.538,45.44 941.101,45.301 940.823,45.024C940.546,44.747 940.365,44.48 940.279,44.224L937.271,36.416L918.263,36.416L915.255,44.224C915.17,44.48 914.989,44.747 914.711,45.024C914.434,45.301 913.997,45.44 913.399,45.44L907.831,45.44ZM920.503,29.056L935.031,29.056L927.735,9.28L920.503,29.056Z" style="fill-rule:nonzero;"/>
        <path d="M956.471,45.44C956.045,45.44 955.682,45.291 955.383,44.992C955.085,44.693 954.935,44.331 954.935,43.904L954.935,2.24C954.935,1.771 955.085,1.387 955.383,1.088C955.682,0.789 956.045,0.64 956.471,0.64L973.047,0.64C978.21,0.64 982.285,1.835 985.271,4.224C988.258,6.613 989.751,10.091 989.751,14.656C989.751,17.813 988.973,20.437 987.415,22.528C985.858,24.619 983.778,26.133 981.175,27.072L990.519,43.392C990.647,43.648 990.711,43.883 990.711,44.096C990.711,44.48 990.573,44.8 990.295,45.056C990.018,45.312 989.709,45.44 989.367,45.44L983.543,45.44C982.818,45.44 982.263,45.248 981.879,44.864C981.495,44.48 981.197,44.096 980.983,43.712L972.727,28.544L963.831,28.544L963.831,43.904C963.831,44.331 963.693,44.693 963.415,44.992C963.138,45.291 962.765,45.44 962.295,45.44L956.471,45.44ZM963.831,21.312L972.855,21.312C975.458,21.312 977.399,20.725 978.679,19.552C979.959,18.379 980.599,16.725 980.599,14.592C980.599,12.459 979.97,10.784 978.711,9.568C977.453,8.352 975.501,7.744 972.855,7.744L963.831,7.744L963.831,21.312Z" style="fill-rule:nonzero;"/>
        <path d="M999.543,45.44C999.117,45.44 998.754,45.291 998.455,44.992C998.157,44.693 998.007,44.331 998.007,43.904L998.007,2.24C998.007,1.771 998.157,1.387 998.455,1.088C998.754,0.789 999.117,0.64 999.543,0.64L1015.16,0.64C1019.47,0.64 1023.02,1.301 1025.82,2.624C1028.61,3.947 1030.72,5.909 1032.15,8.512C1033.58,11.115 1034.32,14.293 1034.36,18.048C1034.44,19.925 1034.49,21.589 1034.49,23.04C1034.49,24.491 1034.44,26.133 1034.36,27.968C1034.27,31.936 1033.55,35.211 1032.18,37.792C1030.82,40.373 1028.76,42.293 1026.01,43.552C1023.25,44.811 1019.75,45.44 1015.48,45.44L999.543,45.44ZM1006.9,38.08L1015.16,38.08C1017.55,38.08 1019.49,37.739 1020.98,37.056C1022.48,36.373 1023.58,35.275 1024.28,33.76C1024.98,32.245 1025.36,30.251 1025.4,27.776C1025.44,26.496 1025.47,25.376 1025.5,24.416C1025.52,23.456 1025.52,22.496 1025.5,21.536C1025.47,20.576 1025.44,19.477 1025.4,18.24C1025.31,14.741 1024.44,12.16 1022.77,10.496C1021.11,8.832 1018.47,8 1014.84,8L1006.9,8L1006.9,38.08Z" style="fill-rule:nonzero;"/>
    </g>
</svg>
