<?xml version="1.0" encoding="UTF-8" standalone="no"?>
<!DOCTYPE svg PUBLIC "-//W3C//DTD SVG 1.1//EN" "http://www.w3.org/Graphics/SVG/1.1/DTD/svg11.dtd">
<svg width="100%" height="100%" viewBox="0 0 1283 72" version="1.1" xmlns="http://www.w3.org/2000/svg" xmlns:xlink="http://www.w3.org/1999/xlink" xml:space="preserve" xmlns:serif="http://www.serif.com/" style="fill-rule:evenodd;clip-rule:evenodd;stroke-linejoin:round;stroke-miterlimit:2;">
    <g>
        <g transform="matrix(1.08121,0,0,0.803326,-221.747,-270.793)">
            <rect x="205.092" y="363.232" width="1186.45" height="37.345" style="fill:rgb(249,212,28);"/>
        </g>
        <g transform="matrix(0.991621,0,0,0.410407,-160.605,-83.3819)">
            <path d="M194.737,376.168C194.064,376.168 193.493,375.6 193.022,374.463C192.552,373.325 192.316,371.945 192.316,370.32L192.316,211.697C192.316,209.91 192.552,208.448 193.022,207.311C193.493,206.174 194.064,205.606 194.737,205.606L221.763,205.606C227.007,205.606 231.579,207.595 235.478,211.575C239.377,215.555 242.403,221.565 244.554,229.606C246.705,237.647 247.781,247.678 247.781,259.698C247.781,271.881 246.705,281.912 244.554,289.79C242.403,297.669 239.377,303.557 235.478,307.456C231.579,311.354 227.007,313.304 221.763,313.304L206.737,313.304L206.737,370.32C206.737,371.945 206.519,373.325 206.082,374.463C205.645,375.6 205.056,376.168 204.317,376.168L194.737,376.168ZM206.535,286.257L221.259,286.257C225.158,286.257 228.15,284.024 230.234,279.557C232.318,275.09 233.36,268.47 233.36,259.698C233.36,251.576 232.385,245.038 230.436,240.084C228.486,235.129 225.427,232.652 221.259,232.652L206.535,232.652L206.535,286.257Z" style="fill:rgb(35,31,32);fill-rule:nonzero;"/>
            <path d="M250,376.168C249.462,376.168 248.974,375.681 248.537,374.706C248.1,373.732 247.882,372.513 247.882,371.051C247.882,370.402 247.949,369.671 248.084,368.858L272.387,211.697C272.589,210.073 272.975,208.651 273.547,207.433C274.118,206.215 274.908,205.606 275.917,205.606L286.909,205.606C287.917,205.606 288.691,206.215 289.228,207.433C289.766,208.651 290.17,210.073 290.438,211.697L314.742,368.858C314.809,369.671 314.843,370.402 314.843,371.051C314.843,372.513 314.641,373.732 314.238,374.706C313.835,375.681 313.364,376.168 312.826,376.168L304.053,376.168C303.111,376.168 302.422,375.64 301.985,374.584C301.548,373.529 301.263,372.513 301.128,371.539L296.388,341.812L266.437,341.812L261.698,371.539C261.563,372.513 261.277,373.529 260.84,374.584C260.403,375.64 259.714,376.168 258.773,376.168L250,376.168ZM269.967,313.791L292.859,313.791L281.362,238.5L269.967,313.791Z" style="fill:rgb(35,31,32);fill-rule:nonzero;"/>
            <path d="M350.845,378.605C344.996,378.605 339.92,376.209 335.617,371.417C331.314,366.625 327.986,359.234 325.633,349.244C323.28,339.254 322.104,326.461 322.104,310.867L322.104,211.697C322.104,209.91 322.339,208.448 322.81,207.311C323.28,206.174 323.852,205.606 324.524,205.606L333.701,205.606C334.441,205.606 335.029,206.174 335.466,207.311C335.903,208.448 336.121,209.91 336.121,211.697L336.121,310.867C336.121,324.187 337.432,334.055 340.054,340.472C342.676,346.888 346.273,350.096 350.845,350.096C355.416,350.096 358.996,346.888 361.585,340.472C364.173,334.055 365.467,324.187 365.467,310.867L365.467,211.697C365.467,209.91 365.702,208.448 366.173,207.311C366.644,206.174 367.249,205.606 367.988,205.606L377.064,205.606C377.804,205.606 378.392,206.174 378.829,207.311C379.266,208.448 379.485,209.91 379.485,211.697L379.485,310.867C379.485,326.461 378.325,339.254 376.005,349.244C373.686,359.234 370.392,366.625 366.123,371.417C361.854,376.209 356.761,378.605 350.845,378.605Z" style="fill:rgb(35,31,32);fill-rule:nonzero;"/>
            <path d="M397.032,376.168C396.359,376.168 395.788,375.6 395.317,374.463C394.847,373.325 394.611,371.945 394.611,370.32L394.611,211.453C394.611,209.829 394.847,208.448 395.317,207.311C395.788,206.174 396.359,205.606 397.032,205.606L406.41,205.606C407.083,205.606 407.654,206.174 408.125,207.311C408.595,208.448 408.831,209.829 408.831,211.453L408.831,347.173L440.798,347.173C441.538,347.173 442.143,347.741 442.614,348.878C443.084,350.015 443.32,351.477 443.32,353.264L443.32,370.32C443.32,371.945 443.084,373.325 442.614,374.463C442.143,375.6 441.538,376.168 440.798,376.168L397.032,376.168Z" style="fill:rgb(35,31,32);fill-rule:nonzero;"/>
            <path d="M476.094,376.168C475.422,376.168 474.85,375.6 474.38,374.463C473.909,373.325 473.674,371.945 473.674,370.32L473.674,211.697C473.674,209.91 473.909,208.448 474.38,207.311C474.85,206.174 475.422,205.606 476.094,205.606L502.213,205.606C510.348,205.606 516.768,210.154 521.474,219.251C526.181,228.347 528.534,241.586 528.534,258.967C528.534,270.988 527.307,280.978 524.853,288.938C522.399,296.897 519.121,302.664 515.02,306.238L529.744,368.371C529.945,369.346 530.046,370.239 530.046,371.051C530.046,372.513 529.828,373.732 529.391,374.706C528.954,375.681 528.466,376.168 527.929,376.168L518.752,376.168C517.609,376.168 516.735,375.437 516.13,373.975C515.525,372.513 515.054,371.051 514.718,369.589L501.709,311.842L487.691,311.842L487.691,370.32C487.691,371.945 487.473,373.325 487.036,374.463C486.599,375.6 486.011,376.168 485.271,376.168L476.094,376.168ZM487.691,284.308L501.91,284.308C506.012,284.308 509.07,282.074 511.087,277.607C513.104,273.14 514.113,266.846 514.113,258.724C514.113,250.602 513.121,244.226 511.138,239.596C509.155,234.967 506.079,232.652 501.91,232.652L487.691,232.652L487.691,284.308Z" style="fill:rgb(35,31,32);fill-rule:nonzero;"/>
            <path d="M537.206,376.168C536.668,376.168 536.181,375.681 535.744,374.706C535.307,373.732 535.089,372.513 535.089,371.051C535.089,370.402 535.156,369.671 535.29,368.858L559.594,211.697C559.796,210.073 560.182,208.651 560.754,207.433C561.325,206.215 562.115,205.606 563.123,205.606L574.116,205.606C575.124,205.606 575.897,206.215 576.435,207.433C576.973,208.651 577.376,210.073 577.645,211.697L601.949,368.858C602.016,369.671 602.05,370.402 602.05,371.051C602.05,372.513 601.848,373.732 601.445,374.706C601.041,375.681 600.571,376.168 600.033,376.168L591.259,376.168C590.318,376.168 589.629,375.64 589.192,374.584C588.755,373.529 588.469,372.513 588.335,371.539L583.595,341.812L553.644,341.812L548.904,371.539C548.77,372.513 548.484,373.529 548.047,374.584C547.61,375.64 546.921,376.168 545.98,376.168L537.206,376.168ZM557.174,313.791L580.065,313.791L568.569,238.5L557.174,313.791Z" style="fill:rgb(35,31,32);fill-rule:nonzero;"/>
            <path d="M624.74,376.168C624.067,376.168 623.496,375.6 623.025,374.463C622.555,373.325 622.319,371.945 622.319,370.32L622.319,315.253L598.52,213.403C598.453,213.078 598.386,212.672 598.318,212.184C598.251,211.697 598.217,211.21 598.217,210.722C598.217,209.26 598.419,208.042 598.823,207.068C599.226,206.093 599.697,205.606 600.234,205.606L609.21,205.606C610.016,205.606 610.672,206.093 611.176,207.068C611.68,208.042 612.033,209.098 612.235,210.235L629.379,281.14L646.421,210.235C646.69,209.098 647.077,208.042 647.581,207.068C648.085,206.093 648.741,205.606 649.548,205.606L658.422,205.606C659.027,205.606 659.531,206.093 659.935,207.068C660.338,208.042 660.54,209.26 660.54,210.722C660.54,211.21 660.523,211.697 660.489,212.184C660.456,212.672 660.372,213.078 660.237,213.403L636.438,315.253L636.438,370.32C636.438,371.945 636.202,373.325 635.732,374.463C635.261,375.6 634.656,376.168 633.917,376.168L624.74,376.168Z" style="fill:rgb(35,31,32);fill-rule:nonzero;"/>
            <path d="M673.145,376.168C672.473,376.168 671.902,375.6 671.431,374.463C670.96,373.325 670.725,371.945 670.725,370.32L670.725,211.697C670.725,209.91 670.96,208.448 671.431,207.311C671.902,206.174 672.473,205.606 673.145,205.606L697.752,205.606C704.542,205.606 710.139,208.123 714.542,213.159C718.946,218.195 722.274,225.667 724.526,235.576C726.778,245.485 727.938,257.587 728.005,271.881C728.14,279.029 728.207,285.364 728.207,290.887C728.207,296.41 728.14,302.664 728.005,309.649C727.871,324.756 726.728,337.223 724.576,347.051C722.425,356.878 719.181,364.188 714.845,368.98C710.508,373.772 704.979,376.168 698.256,376.168L673.145,376.168ZM684.743,348.147L697.752,348.147C701.516,348.147 704.575,346.848 706.928,344.249C709.281,341.65 711.013,337.467 712.122,331.7C713.231,325.933 713.82,318.339 713.887,308.918C713.954,304.045 714.004,299.78 714.038,296.126C714.072,292.471 714.072,288.816 714.038,285.161C714.004,281.506 713.954,277.323 713.887,272.612C713.752,259.292 712.374,249.465 709.752,243.129C707.13,236.794 702.962,233.627 697.247,233.627L684.743,233.627L684.743,348.147Z" style="fill:rgb(35,31,32);fill-rule:nonzero;"/>
            <path d="M768.746,378.605C762.763,378.605 757.62,376.209 753.317,371.417C749.014,366.625 745.653,359.234 743.233,349.244C740.812,339.254 739.501,326.786 739.3,311.842C739.232,304.857 739.199,297.953 739.199,291.131C739.199,284.308 739.232,277.323 739.3,270.176C739.501,255.394 740.846,243.048 743.333,233.139C745.821,223.23 749.233,215.758 753.569,210.722C757.906,205.687 762.965,203.169 768.746,203.169C774.528,203.169 779.604,205.687 783.974,210.722C788.344,215.758 791.773,223.23 794.26,233.139C796.748,243.048 798.092,255.394 798.294,270.176C798.428,277.323 798.496,284.308 798.496,291.131C798.496,297.953 798.428,304.857 798.294,311.842C798.092,326.786 796.781,339.254 794.361,349.244C791.941,359.234 788.562,366.625 784.226,371.417C779.89,376.209 774.73,378.605 768.746,378.605ZM768.746,350.584C773.116,350.584 776.68,347.457 779.436,341.203C782.192,334.949 783.671,324.756 783.873,310.623C784.008,303.476 784.075,296.857 784.075,290.765C784.075,284.674 784.008,278.135 783.873,271.15C783.739,261.729 783.016,254.053 781.705,248.124C780.394,242.195 778.629,237.891 776.411,235.21C774.192,232.53 771.637,231.19 768.746,231.19C765.923,231.19 763.402,232.53 761.183,235.21C758.964,237.891 757.2,242.195 755.889,248.124C754.578,254.053 753.855,261.729 753.721,271.15C753.653,278.135 753.62,284.674 753.62,290.765C753.62,296.857 753.653,303.476 753.721,310.623C753.922,324.756 755.401,334.949 758.158,341.203C760.914,347.457 764.444,350.584 768.746,350.584Z" style="fill:rgb(35,31,32);fill-rule:nonzero;"/>
            <path d="M814.127,376.168C813.454,376.168 812.883,375.6 812.412,374.463C811.942,373.325 811.706,371.945 811.706,370.32L811.706,211.697C811.706,209.91 811.942,208.448 812.412,207.311C812.883,206.174 813.454,205.606 814.127,205.606L821.892,205.606C822.833,205.606 823.522,206.134 823.959,207.189C824.396,208.245 824.682,209.017 824.816,209.504L853.86,318.664L853.86,211.697C853.86,209.91 854.078,208.448 854.515,207.311C854.952,206.174 855.54,205.606 856.28,205.606L864.751,205.606C865.49,205.606 866.095,206.174 866.566,207.311C867.037,208.448 867.272,209.91 867.272,211.697L867.272,370.077C867.272,371.863 867.037,373.325 866.566,374.463C866.095,375.6 865.524,376.168 864.852,376.168L856.986,376.168C856.045,376.168 855.372,375.6 854.969,374.463C854.566,373.325 854.263,372.594 854.061,372.27L825.119,265.546L825.119,370.32C825.119,371.945 824.883,373.325 824.413,374.463C823.942,375.6 823.337,376.168 822.598,376.168L814.127,376.168Z" style="fill:rgb(35,31,32);fill-rule:nonzero;"/>
            <path d="M908.618,376.168C907.879,376.168 907.274,375.6 906.803,374.463C906.333,373.325 906.097,371.945 906.097,370.32L906.097,211.697C906.097,209.91 906.333,208.448 906.803,207.311C907.274,206.174 907.879,205.606 908.618,205.606L916.585,205.606C917.526,205.606 918.232,206.215 918.703,207.433C919.174,208.651 919.476,209.585 919.611,210.235L939.074,297.953L958.738,210.235C958.873,209.585 959.175,208.651 959.646,207.433C960.117,206.215 960.823,205.606 961.764,205.606L969.63,205.606C970.369,205.606 970.974,206.174 971.445,207.311C971.916,208.448 972.151,209.91 972.151,211.697L972.151,370.32C972.151,371.945 971.916,373.325 971.445,374.463C970.974,375.6 970.369,376.168 969.63,376.168L961.159,376.168C960.419,376.168 959.831,375.6 959.394,374.463C958.957,373.325 958.738,371.945 958.738,370.32L958.738,264.815L944.62,329.873C944.284,331.335 943.847,332.593 943.309,333.649C942.771,334.705 942.065,335.233 941.191,335.233L937.057,335.233C936.116,335.233 935.393,334.705 934.889,333.649C934.384,332.593 933.964,331.335 933.628,329.873L919.51,264.815L919.51,370.32C919.51,371.945 919.274,373.325 918.804,374.463C918.333,375.6 917.762,376.168 917.089,376.168L908.618,376.168Z" style="fill:rgb(35,31,32);fill-rule:nonzero;"/>
            <path d="M1015.01,378.605C1009.03,378.605 1003.88,376.209 999.581,371.417C995.278,366.625 991.916,359.234 989.496,349.244C987.076,339.254 985.765,326.786 985.563,311.842C985.496,304.857 985.462,297.953 985.462,291.131C985.462,284.308 985.496,277.323 985.563,270.176C985.765,255.394 987.11,243.048 989.597,233.139C992.085,223.23 995.496,215.758 999.833,210.722C1004.17,205.687 1009.23,203.169 1015.01,203.169C1020.79,203.169 1025.87,205.687 1030.24,210.722C1034.61,215.758 1038.04,223.23 1040.52,233.139C1043.01,243.048 1044.36,255.394 1044.56,270.176C1044.69,277.323 1044.76,284.308 1044.76,291.131C1044.76,297.953 1044.69,304.857 1044.56,311.842C1044.36,326.786 1043.05,339.254 1040.62,349.244C1038.2,359.234 1034.83,366.625 1030.49,371.417C1026.15,376.209 1020.99,378.605 1015.01,378.605ZM1015.01,350.584C1019.38,350.584 1022.94,347.457 1025.7,341.203C1028.46,334.949 1029.93,324.756 1030.14,310.623C1030.27,303.476 1030.34,296.857 1030.34,290.765C1030.34,284.674 1030.27,278.135 1030.14,271.15C1030,261.729 1029.28,254.053 1027.97,248.124C1026.66,242.195 1024.89,237.891 1022.67,235.21C1020.46,232.53 1017.9,231.19 1015.01,231.19C1012.19,231.19 1009.67,232.53 1007.45,235.21C1005.23,237.891 1003.46,242.195 1002.15,248.124C1000.84,254.053 1000.12,261.729 999.984,271.15C999.917,278.135 999.883,284.674 999.883,290.765C999.883,296.857 999.917,303.476 999.984,310.623C1000.19,324.756 1001.67,334.949 1004.42,341.203C1007.18,347.457 1010.71,350.584 1015.01,350.584Z" style="fill:rgb(35,31,32);fill-rule:nonzero;"/>
            <path d="M1060.39,376.168C1059.72,376.168 1059.15,375.6 1058.68,374.463C1058.2,373.325 1057.97,371.945 1057.97,370.32L1057.97,211.453C1057.97,209.829 1058.2,208.448 1058.68,207.311C1059.15,206.174 1059.72,205.606 1060.39,205.606L1069.87,205.606C1070.61,205.606 1071.2,206.174 1071.63,207.311C1072.07,208.448 1072.29,209.829 1072.29,211.453L1072.29,370.32C1072.29,371.945 1072.07,373.325 1071.63,374.463C1071.2,375.6 1070.61,376.168 1069.87,376.168L1060.39,376.168Z" style="fill:rgb(35,31,32);fill-rule:nonzero;"/>
            <path d="M1115.55,378.605C1109.37,378.605 1104.11,376.006 1099.77,370.808C1095.43,365.61 1092.07,358.097 1089.69,348.269C1087.3,338.441 1086.01,326.705 1085.8,313.06C1085.74,306.075 1085.7,298.562 1085.7,290.521C1085.7,282.481 1085.74,274.886 1085.8,267.739C1086.01,254.257 1087.3,242.723 1089.69,233.139C1092.07,223.555 1095.47,216.164 1099.87,210.966C1104.28,205.768 1109.5,203.169 1115.55,203.169C1120.46,203.169 1124.76,204.753 1128.46,207.92C1132.16,211.088 1135.23,215.149 1137.69,220.103C1140.14,225.058 1141.99,230.378 1143.23,236.063C1144.48,241.749 1145.13,247.028 1145.2,251.901C1145.27,253.363 1145.1,254.581 1144.7,255.556C1144.29,256.531 1143.76,257.018 1143.08,257.018L1132.7,257.018C1132.02,257.018 1131.52,256.693 1131.18,256.043C1130.85,255.394 1130.55,254.419 1130.28,253.119C1129.74,249.708 1128.9,246.338 1127.76,243.008C1126.61,239.677 1125.07,236.875 1123.12,234.601C1121.17,232.327 1118.64,231.19 1115.55,231.19C1110.98,231.19 1107.33,234.114 1104.61,239.962C1101.89,245.81 1100.43,255.475 1100.22,268.957C1100.02,283.09 1100.02,297.384 1100.22,311.842C1100.43,325.649 1101.92,335.558 1104.71,341.568C1107.5,347.579 1111.18,350.584 1115.75,350.584C1118.78,350.584 1121.49,349.284 1123.87,346.685C1126.26,344.086 1128.14,340.025 1129.52,334.502C1130.9,328.979 1131.59,321.913 1131.59,313.304L1131.59,305.75L1119.28,305.75C1118.61,305.75 1118.04,305.182 1117.57,304.045C1117.1,302.907 1116.86,301.446 1116.86,299.659L1116.86,286.745C1116.86,284.958 1117.1,283.496 1117.57,282.359C1118.04,281.222 1118.61,280.653 1119.28,280.653L1143.39,280.653C1144.12,280.653 1144.71,281.222 1145.15,282.359C1145.59,283.496 1145.81,284.958 1145.81,286.745L1145.81,312.329C1145.81,325.974 1144.58,337.751 1142.12,347.66C1139.67,357.569 1136.17,365.203 1131.64,370.564C1127.1,375.925 1121.74,378.605 1115.55,378.605Z" style="fill:rgb(35,31,32);fill-rule:nonzero;"/>
            <path d="M1161.13,376.168C1160.46,376.168 1159.89,375.6 1159.42,374.463C1158.95,373.325 1158.71,371.945 1158.71,370.32L1158.71,211.697C1158.71,209.91 1158.95,208.448 1159.42,207.311C1159.89,206.174 1160.46,205.606 1161.13,205.606L1168.9,205.606C1169.84,205.606 1170.53,206.134 1170.97,207.189C1171.4,208.245 1171.69,209.017 1171.82,209.504L1200.87,318.664L1200.87,211.697C1200.87,209.91 1201.09,208.448 1201.52,207.311C1201.96,206.174 1202.55,205.606 1203.29,205.606L1211.76,205.606C1212.5,205.606 1213.1,206.174 1213.57,207.311C1214.04,208.448 1214.28,209.91 1214.28,211.697L1214.28,370.077C1214.28,371.863 1214.04,373.325 1213.57,374.463C1213.1,375.6 1212.53,376.168 1211.86,376.168L1203.99,376.168C1203.05,376.168 1202.38,375.6 1201.98,374.463C1201.57,373.325 1201.27,372.594 1201.07,372.27L1172.13,265.546L1172.13,370.32C1172.13,371.945 1171.89,373.325 1171.42,374.463C1170.95,375.6 1170.35,376.168 1169.61,376.168L1161.13,376.168Z" style="fill:rgb(35,31,32);fill-rule:nonzero;"/>
            <path d="M1225.67,376.168C1225.14,376.168 1224.65,375.681 1224.21,374.706C1223.78,373.732 1223.56,372.513 1223.56,371.051C1223.56,370.402 1223.62,369.671 1223.76,368.858L1248.06,211.697C1248.27,210.073 1248.65,208.651 1249.22,207.433C1249.79,206.215 1250.58,205.606 1251.59,205.606L1262.59,205.606C1263.59,205.606 1264.37,206.215 1264.9,207.433C1265.44,208.651 1265.85,210.073 1266.11,211.697L1290.42,368.858C1290.49,369.671 1290.52,370.402 1290.52,371.051C1290.52,372.513 1290.32,373.732 1289.91,374.706C1289.51,375.681 1289.04,376.168 1288.5,376.168L1279.73,376.168C1278.79,376.168 1278.1,375.64 1277.66,374.584C1277.22,373.529 1276.94,372.513 1276.8,371.539L1272.06,341.812L1242.11,341.812L1237.37,371.539C1237.24,372.513 1236.95,373.529 1236.52,374.584C1236.08,375.64 1235.39,376.168 1234.45,376.168L1225.67,376.168ZM1245.64,313.791L1268.53,313.791L1257.04,238.5L1245.64,313.791Z" style="fill:rgb(35,31,32);fill-rule:nonzero;"/>
            <path d="M1302.32,376.168C1301.64,376.168 1301.07,375.6 1300.6,374.463C1300.13,373.325 1299.9,371.945 1299.9,370.32L1299.9,211.697C1299.9,209.91 1300.13,208.448 1300.6,207.311C1301.07,206.174 1301.64,205.606 1302.32,205.606L1328.44,205.606C1336.57,205.606 1342.99,210.154 1347.7,219.251C1352.4,228.347 1354.76,241.586 1354.76,258.967C1354.76,270.988 1353.53,280.978 1351.08,288.938C1348.62,296.897 1345.35,302.664 1341.24,306.238L1355.97,368.371C1356.17,369.346 1356.27,370.239 1356.27,371.051C1356.27,372.513 1356.05,373.732 1355.61,374.706C1355.18,375.681 1354.69,376.168 1354.15,376.168L1344.98,376.168C1343.83,376.168 1342.96,375.437 1342.35,373.975C1341.75,372.513 1341.28,371.051 1340.94,369.589L1327.93,311.842L1313.91,311.842L1313.91,370.32C1313.91,371.945 1313.7,373.325 1313.26,374.463C1312.82,375.6 1312.23,376.168 1311.49,376.168L1302.32,376.168ZM1313.91,284.308L1328.13,284.308C1332.24,284.308 1335.29,282.074 1337.31,277.607C1339.33,273.14 1340.34,266.846 1340.34,258.724C1340.34,250.602 1339.34,244.226 1337.36,239.596C1335.38,234.967 1332.3,232.652 1328.13,232.652L1313.91,232.652L1313.91,284.308Z" style="fill:rgb(35,31,32);fill-rule:nonzero;"/>
            <path d="M1370.19,376.168C1369.51,376.168 1368.94,375.6 1368.47,374.463C1368,373.325 1367.77,371.945 1367.77,370.32L1367.77,211.697C1367.77,209.91 1368,208.448 1368.47,207.311C1368.94,206.174 1369.51,205.606 1370.19,205.606L1394.79,205.606C1401.58,205.606 1407.18,208.123 1411.58,213.159C1415.99,218.195 1419.31,225.667 1421.57,235.576C1423.82,245.485 1424.98,257.587 1425.05,271.881C1425.18,279.029 1425.25,285.364 1425.25,290.887C1425.25,296.41 1425.18,302.664 1425.05,309.649C1424.91,324.756 1423.77,337.223 1421.62,347.051C1419.47,356.878 1416.22,364.188 1411.89,368.98C1407.55,373.772 1402.02,376.168 1395.3,376.168L1370.19,376.168ZM1381.78,348.147L1394.79,348.147C1398.56,348.147 1401.62,346.848 1403.97,344.249C1406.32,341.65 1408.05,337.467 1409.16,331.7C1410.27,325.933 1410.86,318.339 1410.93,308.918C1411,304.045 1411.05,299.78 1411.08,296.126C1411.11,292.471 1411.11,288.816 1411.08,285.161C1411.05,281.506 1411,277.323 1410.93,272.612C1410.79,259.292 1409.41,249.465 1406.79,243.129C1404.17,236.794 1400,233.627 1394.29,233.627L1381.78,233.627L1381.78,348.147Z" style="fill:rgb(35,31,32);fill-rule:nonzero;"/>
        </g>
    </g>
</svg>
