<?xml version="1.0" encoding="UTF-8" standalone="no"?>
<!DOCTYPE svg PUBLIC "-//W3C//DTD SVG 1.1//EN" "http://www.w3.org/Graphics/SVG/1.1/DTD/svg11.dtd">
<svg width="100%" height="100%" viewBox="0 0 20 20" version="1.1" xmlns="http://www.w3.org/2000/svg" xmlns:xlink="http://www.w3.org/1999/xlink" xml:space="preserve" xmlns:serif="http://www.serif.com/" style="fill-rule:evenodd;clip-rule:evenodd;stroke-linejoin:round;stroke-miterlimit:2;">
    <g transform="matrix(1,0,0,1,-2,-2)">
        <path d="M22,5C22,3.344 20.656,2 19,2L5,2C3.344,2 2,3.344 2,5L2,19C2,20.656 3.344,22 5,22L19,22C20.656,22 22,20.656 22,19L22,5ZM8,20L5,20C4.448,20 4,19.552 4,19L4,10L8,10L8,20ZM20,10L20,19C20,19.552 19.552,20 19,20L10,20L10,10L20,10ZM20,8L4,8L4,5C4,4.448 4.448,4 5,4C5,4 19,4 19,4C19.552,4 20,4.448 20,5L20,8Z"/>
    </g>
</svg>
