<?xml version="1.0" encoding="UTF-8" standalone="no"?>
<!DOCTYPE svg PUBLIC "-//W3C//DTD SVG 1.1//EN" "http://www.w3.org/Graphics/SVG/1.1/DTD/svg11.dtd">
<svg width="100%" height="100%" viewBox="0 0 14 14" version="1.1" xmlns="http://www.w3.org/2000/svg" xmlns:xlink="http://www.w3.org/1999/xlink" xml:space="preserve" xmlns:serif="http://www.serif.com/" style="fill-rule:evenodd;clip-rule:evenodd;stroke-linejoin:round;stroke-miterlimit:2;">
    <g transform="matrix(1,0,0,1,-5,-5)">
        <path d="M12,10.586L6.707,5.293C6.317,4.903 5.683,4.903 5.293,5.293C4.903,5.683 4.903,6.317 5.293,6.707L10.586,12L5.293,17.293C4.903,17.683 4.903,18.317 5.293,18.707C5.683,19.097 6.317,19.097 6.707,18.707L12,13.414L17.293,18.707C17.683,19.097 18.317,19.097 18.707,18.707C19.097,18.317 19.097,17.683 18.707,17.293L13.414,12L18.707,6.707C19.097,6.317 19.097,5.683 18.707,5.293C18.317,4.903 17.683,4.903 17.293,5.293L12,10.586Z"/>
    </g>
</svg>
